<svg width="931" height="244" viewBox="0 0 931 244" fill="none" xmlns="http://www.w3.org/2000/svg">
<path d="M170.466 119.16H183.135V134.936H170.466V185.066H148.538V134.936H139.097V119.16H148.538V114.227C148.538 109.11 149.573 104.765 151.644 101.192C153.756 97.5776 156.74 94.8569 160.598 93.0296C164.456 91.1616 169.024 90.2276 174.303 90.2276C177.186 90.2276 180.496 90.6743 184.232 91.5677L184.414 108.318C182.993 107.953 181.349 107.77 179.481 107.77C176.597 107.77 174.364 108.318 172.78 109.415C171.237 110.511 170.466 112.115 170.466 114.227V119.16ZM225.286 117.942C227.641 117.942 229.57 118.166 231.072 118.612L230.707 140.053L229.001 139.931C226.646 139.687 224.9 139.566 223.763 139.566C220.514 139.566 217.895 140.012 215.905 140.906C213.956 141.758 212.535 143.098 211.642 144.926V185.066H189.835V119.16H210.18L210.911 127.871C212.535 124.663 214.565 122.206 217.002 120.5C219.479 118.795 222.24 117.942 225.286 117.942ZM235.945 151.504C235.945 145.007 237.163 139.22 239.6 134.145C242.077 129.069 245.711 125.109 250.503 122.267C255.335 119.384 261.142 117.942 267.924 117.942C274.786 117.942 280.613 119.384 285.405 122.267C290.237 125.109 293.872 129.069 296.308 134.145C298.785 139.18 300.024 144.966 300.024 151.504V152.783C300.024 159.321 298.785 165.108 296.308 170.143C293.872 175.178 290.258 179.138 285.466 182.021C280.674 184.863 274.867 186.284 268.045 186.284C261.223 186.284 255.396 184.863 250.564 182.021C245.732 179.138 242.077 175.178 239.6 170.143C237.163 165.108 235.945 159.321 235.945 152.783V151.504ZM257.751 152.783C257.751 157.859 258.482 161.778 259.944 164.539C261.447 167.26 264.147 168.62 268.045 168.62C271.822 168.62 274.461 167.24 275.964 164.478C277.466 161.717 278.218 157.819 278.218 152.783V151.504C278.218 146.55 277.466 142.672 275.964 139.87C274.461 137.028 271.781 135.606 267.924 135.606C264.147 135.606 261.508 137.028 260.005 139.87C258.503 142.713 257.751 146.591 257.751 151.504V152.783ZM347.839 117.942C354.336 117.942 359.392 119.973 363.006 124.033C366.62 128.094 368.427 134.794 368.427 144.134V185.066H346.499V144.073C346.499 141.718 346.154 139.911 345.463 138.652C344.814 137.393 343.859 136.561 342.601 136.155C341.382 135.708 339.758 135.485 337.728 135.485C334.154 135.485 331.515 136.703 329.809 139.139V185.066H307.942V119.16H328.408L329.139 126.774C331.373 123.891 334.073 121.698 337.24 120.196C340.408 118.693 343.941 117.942 347.839 117.942ZM410.76 168.437C413.196 168.437 414.902 168.356 415.877 168.194V184.396C412.263 185.655 408.263 186.284 403.877 186.284C396.771 186.284 391.39 184.599 387.736 181.229C384.122 177.858 382.315 172.579 382.315 165.392V134.936H374.518V119.16H382.315V102.593H404.182V119.16H414.78V134.936H404.182V162.042C404.182 163.707 404.364 165.006 404.73 165.94C405.095 166.834 405.745 167.483 406.679 167.889C407.613 168.255 408.973 168.437 410.76 168.437ZM423.247 185.066V91.5068H445.175V185.066H423.247ZM468.93 91.2631C471.245 91.2631 473.316 91.7301 475.143 92.6641C476.97 93.5981 478.392 94.8975 479.407 96.5624C480.463 98.2273 480.991 100.116 480.991 102.227C480.991 104.379 480.483 106.288 479.468 107.953C478.453 109.618 477.011 110.917 475.143 111.851C473.316 112.785 471.245 113.252 468.93 113.252C466.575 113.252 464.484 112.785 462.656 111.851C460.829 110.917 459.387 109.618 458.332 107.953C457.316 106.288 456.809 104.379 456.809 102.227C456.809 100.116 457.316 98.2273 458.332 96.5624C459.387 94.8975 460.829 93.5981 462.656 92.6641C464.484 91.7301 466.575 91.2631 468.93 91.2631ZM458.088 185.066V119.16H480.016V185.066H458.088ZM531.303 117.942C537.8 117.942 542.856 119.973 546.47 124.033C550.084 128.094 551.891 134.794 551.891 144.134V185.066H529.963V144.073C529.963 141.718 529.618 139.911 528.928 138.652C528.278 137.393 527.324 136.561 526.065 136.155C524.847 135.708 523.222 135.485 521.192 135.485C517.618 135.485 514.979 136.703 513.273 139.139V185.066H491.406V119.16H511.872L512.603 126.774C514.837 123.891 517.537 121.698 520.705 120.196C523.872 118.693 527.405 117.942 531.303 117.942ZM623.096 159.423H583.078C583.93 162.346 585.514 164.62 587.829 166.245C590.184 167.828 593.087 168.62 596.539 168.62C599.463 168.62 602.224 168.133 604.823 167.158C607.462 166.184 609.696 164.6 611.523 162.407L621.208 175.138C619.746 177.087 617.736 178.914 615.178 180.62C612.66 182.285 609.675 183.645 606.224 184.701C602.772 185.757 599.057 186.284 595.077 186.284C588.011 186.284 581.859 184.823 576.621 181.899C571.383 178.975 567.383 175.077 564.621 170.204C561.901 165.29 560.54 159.971 560.54 154.245V151.991C560.54 145.616 561.718 139.87 564.073 134.754C566.429 129.597 570.022 125.515 574.855 122.511C579.687 119.465 585.656 117.942 592.762 117.942C598.935 117.942 604.295 119.221 608.843 121.78C613.432 124.338 616.944 128.033 619.381 132.865C621.858 137.698 623.096 143.444 623.096 150.103V159.423ZM601.838 143.829C602.001 138.347 598.914 135.606 592.58 135.606C589.575 135.606 587.321 136.5 585.819 138.286C584.316 140.073 583.321 142.51 582.834 145.596H601.838V143.829ZM666.404 117.942C668.759 117.942 670.688 118.166 672.19 118.612L671.825 140.053L670.12 139.931C667.764 139.687 666.018 139.566 664.881 139.566C661.633 139.566 659.013 140.012 657.024 140.906C655.074 141.758 653.653 143.098 652.76 144.926V185.066H630.954V119.16H651.298L652.029 127.871C653.653 124.663 655.684 122.206 658.12 120.5C660.597 118.795 663.358 117.942 666.404 117.942ZM700.21 159.91C693.266 158.407 687.682 155.971 683.459 152.601C679.236 149.19 677.124 144.723 677.124 139.2C677.124 135.342 678.2 131.81 680.353 128.602C682.545 125.353 685.713 122.774 689.855 120.866C693.997 118.917 698.91 117.942 704.595 117.942C710.524 117.942 715.701 118.836 720.128 120.622C724.594 122.409 728.026 124.947 730.421 128.236C732.817 131.485 734.015 135.282 734.015 139.627H712.148C712.148 137.109 711.58 135.322 710.443 134.266C709.346 133.17 707.377 132.622 704.534 132.622C702.666 132.622 701.042 133.089 699.661 134.023C698.321 134.957 697.651 136.256 697.651 137.921C697.651 141.129 701.123 143.281 708.067 144.378C713.021 145.149 717.346 146.286 721.041 147.789C724.777 149.25 727.823 151.443 730.178 154.367C732.574 157.291 733.772 161.088 733.772 165.757C733.772 169.656 732.574 173.168 730.178 176.295C727.782 179.381 724.371 181.818 719.945 183.604C715.519 185.391 710.382 186.284 704.534 186.284C698.443 186.284 693.164 185.188 688.697 182.995C684.271 180.762 680.88 177.919 678.525 174.468C676.211 170.975 675.053 167.422 675.053 163.808H695.337C695.418 166.367 696.311 168.295 698.017 169.595C699.722 170.894 702.098 171.544 705.143 171.544C707.62 171.544 709.509 171.077 710.808 170.143C712.148 169.168 712.818 167.869 712.818 166.245C712.818 165.27 712.432 164.458 711.661 163.808C710.93 163.118 709.671 162.489 707.884 161.92C706.138 161.311 703.58 160.641 700.21 159.91ZM756.126 163.199C758.441 163.199 760.491 163.686 762.278 164.661C764.105 165.636 765.527 166.976 766.542 168.681C767.557 170.387 768.065 172.295 768.065 174.407C768.065 176.559 767.557 178.488 766.542 180.193C765.527 181.899 764.105 183.259 762.278 184.274C760.491 185.249 758.441 185.736 756.126 185.736C753.811 185.736 751.74 185.249 749.913 184.274C748.126 183.259 746.725 181.899 745.71 180.193C744.695 178.488 744.187 176.559 744.187 174.407C744.187 172.295 744.695 170.387 745.71 168.681C746.725 166.976 748.126 165.636 749.913 164.661C751.74 163.686 753.811 163.199 756.126 163.199ZM817.342 117.942C822.824 117.942 827.473 119.323 831.29 122.084C835.148 124.805 838.051 128.663 840.001 133.657C841.99 138.652 842.985 144.52 842.985 151.261V152.54C842.985 159.037 841.99 164.844 840.001 169.96C838.051 175.036 835.148 179.036 831.29 181.96C827.473 184.843 822.864 186.284 817.463 186.284C811.657 186.284 806.865 184.071 803.088 179.645V210.405H781.282V119.16H801.688L802.358 125.13C806.175 120.338 811.169 117.942 817.342 117.942ZM821.179 151.261C821.179 146.185 820.468 142.286 819.047 139.566C817.667 136.845 815.332 135.485 812.042 135.485C809.768 135.485 807.9 135.85 806.439 136.581C804.977 137.312 803.86 138.429 803.088 139.931V163.93C804.753 167.057 807.779 168.62 812.164 168.62C815.494 168.62 817.829 167.199 819.169 164.356C820.509 161.514 821.179 157.575 821.179 152.54V151.261ZM889.156 117.942C896.1 117.942 901.541 120.074 905.48 124.338C909.419 128.602 911.388 135.424 911.388 144.804V185.066H889.46V144.682C889.46 141.149 888.729 138.733 887.268 137.434C885.806 136.134 883.593 135.485 880.628 135.485C876.933 135.485 874.273 136.459 872.649 138.408V185.066H850.843V91.5068H872.649V126.104C874.72 123.505 877.156 121.495 879.958 120.074C882.76 118.653 885.826 117.942 889.156 117.942Z" fill="#36363F"/>
<path d="M38.5408 60.3481V60.7538L38.7436 60.3481H38.5408Z" fill="#B99500"/>
<path d="M42.5979 123.232L43.6121 122.218L42.5979 122.725V123.232Z" fill="#B99500"/>
<path d="M42.4964 122.725L42.1921 123.435L42.5978 123.232V122.725H42.4964Z" fill="#B99500"/>
<path d="M0 151.631L0.101424 151.732L0.202847 151.53L0 151.631Z" fill="#B99500"/>
<path d="M169.377 0.507202L38.8453 60.1453L38.7439 60.3482L92.3969 75.0549L169.377 0.507202Z" fill="#3A82E4"/>
<path d="M42.5979 122.725L38.541 60.7537L0.202881 151.529L42.1922 123.435L42.4965 122.725H42.5979Z" fill="#3A6FE4"/>
<path d="M38.7436 60.3481L38.5408 60.7538L42.5977 122.725L43.6119 122.218L92.3966 75.0548L38.7436 60.3481Z" fill="#547EE8"/>
<path d="M169.377 0.507127L92.397 75.0548L127.388 84.5888L170.392 0L169.377 0.507127Z" fill="#439DE8"/>
<path d="M43.6121 122.218L127.286 84.7918L127.388 84.5889L92.3968 75.0549L43.6121 122.218Z" fill="#3A6FE4"/>
<path d="M24.646 171.815L42.1923 123.435L0.202986 151.53L0.101562 151.733L24.7475 172.423L24.646 171.815Z" fill="#437EE8"/>
<path d="M0.101562 151.732L33.5713 211.979L24.7475 172.423L0.101562 151.732Z" fill="#3A6FE4"/>
<path d="M42.5977 178.002L42.6991 177.292L42.2935 177.799L42.5977 178.002Z" fill="#FD5733"/>
<path d="M49.6973 128.405L49.3931 128.506L49.6973 128.608V128.405Z" fill="#FD5733"/>
<path d="M49.7989 128.608L49.6975 128.303V128.405V128.608H49.7989Z" fill="#FD5733"/>
<path d="M74.0392 136.215L120.593 95.9486L49.6975 128.303L49.7989 128.608L74.0392 136.215Z" fill="#FD5733"/>
<path d="M49.6975 128.608L45.032 161.267L54.6672 152.95L49.7989 128.608H49.6975Z" fill="#FD5733"/>
<path d="M54.6674 152.95L74.0393 136.215L49.7991 128.608L54.6674 152.95Z" fill="#FD5733"/>
<path d="M31.5427 172.829L38.0338 211.979L42.2936 177.9V177.799L32.1513 172.322L31.5427 172.829Z" fill="#FD4120"/>
<path d="M54.6672 152.95L55.7829 158.63L55.8843 158.427L93.8167 142.807L94.0196 142.402L74.0391 136.215L54.6672 152.95Z" fill="#FD9C33"/>
<path d="M45.0322 161.267L42.6995 177.292L55.7831 158.63L54.6674 152.95L45.0322 161.267Z" fill="#FD6955"/>
<path d="M120.593 95.9486L74.0393 136.215L94.0197 142.401L120.593 95.9486Z" fill="#FD7333"/>
<path d="M45.032 161.267L49.6975 128.608L49.3932 128.506L49.1904 128.608L31.3398 171.815L32.1512 172.322L45.032 161.267Z" fill="#FD4033"/>
<path d="M32.1511 172.322L42.2935 177.799L42.6992 177.292L45.0319 161.267L32.1511 172.322Z" fill="#FD5733"/>
<path d="M31.3398 171.815L31.5427 172.829L32.1512 172.322L31.3398 171.815Z" fill="#FD5733"/>
<path d="M52.035 178.811L42.9302 210.679L63.0908 184.664L52.035 178.811Z" fill="#FDC057"/>
<path d="M77.6148 165.804L52.0347 178.595V178.811L63.0905 184.664L77.6148 165.804Z" fill="#FDAE34"/>
<path d="M42.9299 210.678L42.4963 211.979L79.5659 193.552L63.0905 184.664L42.9299 210.678Z" fill="#FDC756"/>
<path d="M80.6496 164.286L77.6146 165.804L63.0903 184.664L79.5657 193.552L80.6496 192.902V164.286Z" fill="#F2C734"/>
</svg>
