<svg width="652" height="510" viewBox="0 0 652 510" fill="none" xmlns="http://www.w3.org/2000/svg">
<path fill-rule="evenodd" clip-rule="evenodd" d="M521.924 9.82186C609.232 5.0067 712.235 -21.4956 769.203 39.7826C827.031 101.986 786.225 193.478 767.08 273.527C747.664 354.713 740.213 449.119 661.607 489.677C579.535 532.022 480.93 500.397 394.793 465.611C303.108 428.584 197.348 384.997 177.952 294.351C158.869 205.167 235.774 125.817 309.106 65.1576C366.858 17.3862 444.524 14.0906 521.924 9.82186Z" fill="#79C4ED"/>
<g clip-path="url(#clip0)">
<path fill-rule="evenodd" clip-rule="evenodd" d="M352.232 119.727C354.919 112.515 355.637 104.612 352.355 97.2449C342.898 76.0177 314.319 91.8466 312.422 104.988C310.525 118.129 321.377 145.762 329.715 144.953C333.041 144.63 338.818 140.353 343.964 133.981L350.48 164.757L374.91 155.865L352.232 119.727Z" fill="#B28B67"/>
<path fill-rule="evenodd" clip-rule="evenodd" d="M315.289 95.7342C315.727 95.1966 316.641 94.066 317.141 93.5948C317.259 93.4823 317.987 92.4236 318.016 92.4228C318.852 92.403 321.343 92.5456 321.82 93.2791C321.871 93.3294 321.919 93.376 321.965 93.4158C322.472 93.8597 322.959 94.3265 323.436 94.805C324.482 95.8553 325.469 96.9918 326.43 98.1263C328.3 100.336 330.069 102.649 331.774 104.993C333.509 107.379 335.14 109.838 336.842 112.249C339.29 115.718 341.997 118.986 344.437 122.456C345.995 124.671 347.269 127.023 348.016 129.616C348.025 129.647 348.035 129.677 348.043 129.709C348.047 129.722 348.05 129.735 348.053 129.748C348.165 130.148 348.265 130.553 348.351 130.964C348.423 131.316 348.496 131.67 348.565 132.025C346.926 130.476 345.442 128.654 343.951 126.953C343.806 126.787 343.663 126.618 343.521 126.447C343.127 126.136 342.729 125.829 342.328 125.525C339.804 123.607 337.276 121.701 334.801 119.713C330.349 116.139 325.888 112.458 321.056 109.446C319.63 108.557 318.187 107.695 316.769 106.791C315.962 106.277 315.165 105.745 314.38 105.194C313.819 104.801 311.546 103.543 311.724 102.226C311.815 101.552 314.152 97.129 315.289 95.7342Z" fill="#2C2C2C"/>
<path fill-rule="evenodd" clip-rule="evenodd" d="M316.998 93.7515C316.52 94.1324 316.373 92.9037 316.755 92.3134C318.525 89.5785 327.616 85.5108 336.354 84.2404C342.207 83.3893 349.56 83.8975 355.223 85.9302C360.327 87.7628 364.924 92.0059 368.148 96.5482C371.534 101.318 373.766 106.763 374.932 112.493C375.188 113.751 375.219 115.028 375.431 116.275C375.669 117.678 376.007 118.99 376.045 120.426C376.067 121.305 375.901 122.236 375.964 123.105C376.036 124.098 376.494 124.873 377.014 125.72C377.86 127.101 378.778 128.451 379.832 129.681C381.414 131.526 383.118 133.174 384.538 135.171C386.426 137.827 393.327 146.196 391.793 149.721L344.441 166.955C344.45 163.269 346.636 158.138 346.093 154.393C345.773 152.186 344.346 147.633 344.332 147.454C342.721 139.71 343.526 135.439 344.367 133.69C345.208 131.94 346.804 130.915 346.491 129.777C345.196 125.069 341.783 121.349 338.896 117.566C335.455 113.057 332.393 108.268 328.909 103.794C327.366 101.814 319.478 91.7736 316.998 93.7515Z" fill="#8991DC"/>
<path fill-rule="evenodd" clip-rule="evenodd" d="M335.515 92.9702C339.363 97.9858 340.847 100.87 343.281 108.751L344.157 108.432C343.134 100.532 339.175 94.1844 336.616 92.5695L335.515 92.9702ZM364.792 98.8726C364.403 108.158 364.621 113.478 357.707 123.393L358.608 123.635C365.929 115.05 366.346 107.836 365.614 98.9542L364.792 98.8726ZM348.129 95.6322C350.789 107.643 352.731 114.349 349.42 129.751L350.351 129.702C354.481 115.838 352.523 106.462 348.934 95.4105L348.129 95.6322ZM369.217 126.509L368.183 125.899C359.519 132.521 362.91 138.449 352.924 149.336L354.18 149.585C363.345 141.209 362.392 130.745 369.217 126.509Z" fill="black" fill-opacity="0.2"/>
<path fill-rule="evenodd" clip-rule="evenodd" d="M408.181 251.256L327.69 385.821L267.345 499.585H254.348L355.456 251.256L408.181 251.256Z" fill="#997659"/>
<path fill-rule="evenodd" clip-rule="evenodd" d="M275.293 494.333C276.505 497.568 277.111 499.989 277.111 501.595C277.111 503.548 276.785 506.399 276.135 510.146C273.869 510.146 253.503 510.146 215.039 510.146C213.451 504.897 214.368 502.064 217.788 501.645C221.209 501.227 224.051 500.849 226.313 500.512L254.71 487.852C255.256 487.609 255.897 487.854 256.14 488.4C256.144 488.41 256.148 488.419 256.152 488.429L257.978 492.856C261.144 494.334 263.717 495.073 265.697 495.073C267.306 495.073 269.527 494.423 272.361 493.124L272.361 493.124C273.449 492.625 274.735 493.103 275.234 494.19C275.255 494.237 275.275 494.285 275.293 494.333Z" fill="#E4E4E4"/>
<path fill-rule="evenodd" clip-rule="evenodd" d="M284.105 481.368L259.039 473.785C270.021 440.955 283.481 404.826 299.419 365.4C315.357 325.973 332.474 287.925 350.77 251.256H421.565C401.224 297.64 379.66 339.787 356.873 377.695C334.085 415.603 309.83 450.161 284.105 481.368Z" fill="#DB2721"/>
<path fill-rule="evenodd" clip-rule="evenodd" d="M413.471 251.256C421.067 298.543 435.719 358.958 437.102 360.822C438.024 362.065 471.211 373.186 536.662 394.184L533.854 405.645C455.804 394.384 414.678 385.647 410.476 379.434C404.174 370.115 372.707 296.494 360.519 251.256H413.471Z" fill="#B28B67"/>
<path fill-rule="evenodd" clip-rule="evenodd" d="M513.655 384.276L508.709 402.736C450.332 407.856 414.563 404.156 401.402 391.637C388.241 379.118 373.242 332.324 356.404 251.256H423.911C434.579 317.64 440.544 352.225 441.804 355.012C443.064 357.799 467.014 367.553 513.655 384.276Z" fill="#FF5A4E"/>
<path fill-rule="evenodd" clip-rule="evenodd" d="M533.457 389.409C536.853 388.777 539.342 388.601 540.924 388.88C542.848 389.219 545.598 390.034 549.176 391.326C548.782 393.557 545.246 413.613 538.567 451.493C533.122 452.146 530.49 450.751 530.672 447.31C530.854 443.868 530.975 441.004 531.036 438.717L523.5 408.554C523.355 407.973 523.708 407.385 524.289 407.24C524.298 407.238 524.308 407.236 524.318 407.233L528.996 406.205C531.001 403.343 532.175 400.937 532.519 398.987C532.798 397.403 532.544 395.103 531.757 392.086L531.757 392.086C531.455 390.928 532.148 389.745 533.306 389.442C533.356 389.429 533.406 389.418 533.457 389.409Z" fill="#E4E4E4"/>
<path fill-rule="evenodd" clip-rule="evenodd" d="M314.124 251.239L289.564 286.378C281.491 291.813 275.081 297.327 270.335 302.918C269.364 304.676 268.55 307.84 274.243 305.385C279.935 302.93 286.033 300.602 287.521 302.301C289.01 304 286.287 307.58 288.838 309.686C290.538 311.09 294.136 304.867 299.631 291.018L327.501 266.51L314.124 251.239ZM454.573 201.248L436.692 208.91C468.164 246.508 484.953 266.353 487.059 268.445C491.798 273.153 490.585 283.89 490.471 289.432C498.588 289.57 493.086 278.668 503.389 278.994C512.793 279.292 521.569 283.328 528.287 273.933C529.112 272.778 529.241 269.69 525.43 268.932C515.933 267.044 501.589 262.777 498.927 260.501C495.298 257.397 480.513 237.646 454.573 201.248Z" fill="#B28B67"/>
<path fill-rule="evenodd" clip-rule="evenodd" d="M356.694 146.902L344.157 146.211C338.899 189.121 325.622 232.833 295.146 274.916L309.195 288.812C338.073 259.643 366.319 235.427 371.43 201.899C373.146 190.646 360.28 158.846 356.694 146.902Z" fill="#C5CFD6"/>
<path fill-rule="evenodd" clip-rule="evenodd" d="M425.477 245.272C393.394 257.588 367.409 264.551 347.522 266.159C345.059 266.359 343.643 262.559 344.024 259.621C349.944 213.871 351.941 174.801 344.272 146.18C347.801 146.902 353.31 145.676 360.799 142.501C389.613 166.392 408.293 197.658 425.477 245.272Z" fill="#323337"/>
<path fill-rule="evenodd" clip-rule="evenodd" d="M365.335 138.636L356.62 140.971C357.762 153.348 394.296 315.295 388.583 373.004L495.488 344.359C480.304 296.963 446.566 244.182 415.112 200.877C435.47 211.348 456.49 232.7 478.171 264.934L496.83 254.472C464.897 194.85 421.757 156.298 367.412 138.815C367.25 138.612 367.089 138.41 366.929 138.209L366.158 138.416C365.825 138.311 365.493 138.208 365.16 138.105L365.335 138.636Z" fill="#DDE3E9"/>
</g>
<circle cx="55.9003" cy="202.632" r="34.8231" fill="#79C4ED"/>
<ellipse cx="72.8537" cy="149.873" rx="7.13482" ry="4.32016" transform="rotate(22.7516 72.8537 149.873)" fill="#79C4ED"/>
<path d="M76.8466 154.193C72.4392 156.07 64.3574 162.153 67.2899 171.474C70.2224 180.795 60.9188 174.398 55.9004 170.034V168.594C60.7879 165.539 69.9082 157.492 67.2899 149.742C64.6716 141.992 72.5701 149.48 76.8466 154.193Z" fill="#79C4ED"/>
<ellipse cx="26.4895" cy="153.528" rx="7.13482" ry="4.32016" transform="rotate(-36.8601 26.4895 153.528)" fill="#79C4ED"/>
<path d="M32.2363 152.269C31.6254 157.02 32.7846 167.069 42.3085 169.255C51.8325 171.44 41.6077 176.229 35.3048 178.351L34.0626 177.622C33.9 171.861 31.5722 159.923 23.5624 158.261C15.5525 156.599 26.0075 153.574 32.2363 152.269Z" fill="#79C4ED"/>
<ellipse cx="101.236" cy="172.089" rx="7.13482" ry="4.32016" transform="rotate(69.0449 101.236 172.089)" fill="#79C4ED"/>
<path d="M103.356 178.609C100.673 177.627 88.9639 178.949 84.252 187.51C79.5402 196.07 77.7362 184.924 77.4232 178.281L78.4642 177.286C84.0495 178.709 91.7736 176.758 95.5669 169.51C99.3602 162.262 103.808 172.261 103.356 178.609Z" fill="#79C4ED"/>
<ellipse cx="16.3725" cy="238.747" rx="7.13482" ry="4.32016" transform="rotate(-128.358 16.3725 238.747)" fill="#79C4ED"/>
<path d="M12.3996 233.159C15.2541 233.293 26.0313 228.529 27.9671 218.951C29.9028 209.374 34.9579 219.47 37.2434 225.715L36.5477 226.976C30.7927 227.289 24.0056 231.461 22.5538 239.511C21.1019 247.562 13.8669 239.352 12.3996 233.159Z" fill="#79C4ED"/>
<ellipse cx="87.9214" cy="242.452" rx="7.13482" ry="4.32016" transform="rotate(153.486 87.9214 242.452)" fill="#79C4ED"/>
<path d="M81.6375 245.193C82.3548 242.427 79.9042 230.902 70.9277 227.041C61.9511 223.181 72.8698 220.306 79.4512 219.351L80.5423 220.29C79.6676 225.987 82.3575 233.486 89.9387 236.559C97.5199 239.633 87.9993 245.028 81.6375 245.193Z" fill="#79C4ED"/>
<ellipse cx="52.1774" cy="249.353" rx="7.13482" ry="4.32016" transform="rotate(-173.435 52.1774 249.353)" fill="#79C4ED"/>
<path d="M45.4157 248.22C47.5265 246.294 51.7637 235.299 46.349 227.165C40.9343 219.031 51.6525 222.581 57.6885 225.373L58.0899 226.756C54.2478 231.052 52.4089 238.803 57.0839 245.516C61.7589 252.229 50.8365 251.554 45.4157 248.22Z" fill="#79C4ED"/>
<ellipse cx="105.652" cy="209.587" rx="7.13482" ry="4.32017" transform="rotate(108.409 105.652 209.587)" fill="#79C4ED"/>
<path d="M103.155 215.972C101.703 213.511 91.8118 207.107 82.7395 210.737C73.6672 214.367 79.3417 204.605 83.3131 199.271L84.749 199.162C88.1649 203.804 95.374 207.195 102.904 203.997C110.433 200.8 107.531 211.351 103.155 215.972Z" fill="#79C4ED"/>
<ellipse cx="35.1688" cy="239.074" rx="3.75785" ry="2.27539" transform="rotate(-140.365 35.1688 239.074)" fill="#79C4ED"/>
<path d="M32.5097 236.631C33.995 236.388 39.0251 232.753 38.973 227.606C38.9209 222.46 42.6312 227.107 44.4929 230.074L44.2726 230.8C41.3422 231.592 38.3027 234.485 38.4368 238.791C38.5709 243.098 33.9441 239.661 32.5097 236.631Z" fill="#79C4ED"/>
<ellipse cx="15.6323" cy="187.588" rx="3.75785" ry="2.27539" transform="rotate(-63.731 15.6323 187.588)" fill="#79C4ED"/>
<path d="M17.3944 184.437C17.9748 185.825 22.6742 189.879 27.6691 188.639C32.6639 187.398 29.0002 192.082 26.544 194.58L25.787 194.533C24.3391 191.865 20.822 189.577 16.6632 190.703C12.5043 191.829 14.7787 186.533 17.3944 184.437Z" fill="#79C4ED"/>
<ellipse cx="6.25232" cy="208.652" rx="4.7832" ry="2.89625" transform="rotate(-89.0639 6.25232 208.652)" fill="#79C4ED"/>
<path d="M6.5636 204.066C7.9876 205.348 15.6018 207.452 20.6726 203.304C25.7433 199.157 24.0795 206.541 22.6138 210.752L21.7175 211.11C18.5987 208.83 13.3062 208.112 9.13487 211.673C4.96358 215.233 4.69576 207.902 6.5636 204.066Z" fill="#79C4ED"/>
<circle cx="62.3806" cy="196.544" r="22.8445" fill="#B1DDF4" fill-opacity="0.3"/>
<circle cx="113.393" cy="307.754" r="12.7038" fill="#79C4ED"/>
<ellipse cx="119.577" cy="288.507" rx="2.60284" ry="1.57603" transform="rotate(22.7516 119.577 288.507)" fill="#79C4ED"/>
<path d="M121.034 290.083C119.426 290.768 116.478 292.987 117.548 296.387C118.617 299.788 115.223 297.454 113.393 295.862V295.337C115.176 294.222 118.503 291.287 117.548 288.46C116.592 285.632 119.474 288.364 121.034 290.083Z" fill="#79C4ED"/>
<ellipse cx="102.664" cy="289.841" rx="2.60284" ry="1.57603" transform="rotate(-36.8601 102.664 289.841)" fill="#79C4ED"/>
<path d="M104.76 289.381C104.537 291.115 104.96 294.781 108.435 295.578C111.909 296.375 108.179 298.122 105.88 298.896L105.426 298.631C105.367 296.529 104.518 292.174 101.596 291.567C98.6738 290.961 102.488 289.858 104.76 289.381Z" fill="#79C4ED"/>
<ellipse cx="129.932" cy="296.612" rx="2.60284" ry="1.57603" transform="rotate(69.0449 129.932 296.612)" fill="#79C4ED"/>
<path d="M130.705 298.99C129.726 298.632 125.455 299.115 123.736 302.237C122.017 305.36 121.359 301.294 121.244 298.871L121.624 298.508C123.662 299.027 126.48 298.315 127.863 295.671C129.247 293.027 130.87 296.674 130.705 298.99Z" fill="#79C4ED"/>
<ellipse cx="98.9731" cy="320.929" rx="2.60284" ry="1.57603" transform="rotate(-128.358 98.9731 320.929)" fill="#79C4ED"/>
<path d="M97.524 318.891C98.5653 318.94 102.497 317.202 103.203 313.708C103.909 310.214 105.753 313.897 106.587 316.175L106.333 316.635C104.234 316.749 101.758 318.271 101.228 321.208C100.699 324.145 98.0593 321.15 97.524 318.891Z" fill="#79C4ED"/>
<ellipse cx="125.074" cy="322.281" rx="2.60284" ry="1.57603" transform="rotate(153.486 125.074 322.281)" fill="#79C4ED"/>
<path d="M122.782 323.281C123.043 322.272 122.149 318.067 118.875 316.659C115.6 315.251 119.583 314.202 121.984 313.853L122.382 314.196C122.063 316.274 123.044 319.01 125.81 320.131C128.576 321.252 125.103 323.221 122.782 323.281Z" fill="#79C4ED"/>
<ellipse cx="112.034" cy="324.798" rx="2.60284" ry="1.57603" transform="rotate(-173.435 112.034 324.798)" fill="#79C4ED"/>
<path d="M109.567 324.385C110.338 323.682 111.883 319.671 109.908 316.704C107.933 313.737 111.843 315.032 114.045 316.05L114.191 316.555C112.789 318.122 112.119 320.95 113.824 323.399C115.53 325.848 111.545 325.601 109.567 324.385Z" fill="#79C4ED"/>
<ellipse cx="136.254" cy="312.58" rx="2.60284" ry="1.57603" transform="rotate(108.409 136.254 312.58)" fill="#79C4ED"/>
<path d="M135.344 314.909C134.814 314.011 131.205 311.675 127.896 312.999C124.586 314.323 126.656 310.762 128.105 308.816L128.629 308.777C129.875 310.47 132.505 311.707 135.252 310.541C137.999 309.374 136.94 313.223 135.344 314.909Z" fill="#79C4ED"/>
<ellipse cx="105.83" cy="321.049" rx="1.37089" ry="0.830082" transform="rotate(-140.365 105.83 321.049)" fill="#79C4ED"/>
<path d="M104.86 320.157C105.402 320.069 107.237 318.742 107.218 316.865C107.199 314.988 108.552 316.683 109.231 317.765L109.151 318.03C108.082 318.319 106.973 319.374 107.022 320.945C107.071 322.516 105.383 321.263 104.86 320.157Z" fill="#79C4ED"/>
<ellipse cx="98.7027" cy="302.266" rx="1.37089" ry="0.830082" transform="rotate(-63.731 98.7027 302.266)" fill="#79C4ED"/>
<path d="M99.3453 301.116C99.557 301.623 101.271 303.102 103.094 302.649C104.916 302.197 103.579 303.906 102.683 304.817L102.407 304.8C101.879 303.826 100.596 302.992 99.0785 303.402C97.5614 303.813 98.3911 301.881 99.3453 301.116Z" fill="#79C4ED"/>
<ellipse cx="95.2807" cy="309.95" rx="1.74495" ry="1.05657" transform="rotate(-89.0639 95.2807 309.95)" fill="#79C4ED"/>
<path d="M95.3944 308.277C95.9138 308.745 98.6916 309.512 100.541 307.999C102.391 306.486 101.784 309.18 101.25 310.716L100.923 310.847C99.7849 310.015 97.8541 309.754 96.3324 311.052C94.8107 312.351 94.713 309.677 95.3944 308.277Z" fill="#79C4ED"/>
<circle cx="115.757" cy="305.533" r="8.33386" fill="#B1DDF4" fill-opacity="0.3"/>
<circle cx="188.393" cy="161.754" r="12.7038" fill="#79C4ED"/>
<ellipse cx="194.577" cy="142.507" rx="2.60284" ry="1.57603" transform="rotate(22.7516 194.577 142.507)" fill="#79C4ED"/>
<path d="M196.034 144.083C194.426 144.768 191.478 146.987 192.548 150.387C193.617 153.788 190.223 151.454 188.393 149.862V149.337C190.176 148.222 193.503 145.287 192.548 142.46C191.592 139.632 194.474 142.364 196.034 144.083Z" fill="#79C4ED"/>
<ellipse cx="177.664" cy="143.841" rx="2.60284" ry="1.57603" transform="rotate(-36.8601 177.664 143.841)" fill="#79C4ED"/>
<path d="M179.76 143.381C179.537 145.115 179.96 148.781 183.435 149.578C186.909 150.375 183.179 152.122 180.88 152.896L180.426 152.631C180.367 150.529 179.518 146.174 176.596 145.567C173.674 144.961 177.488 143.858 179.76 143.381Z" fill="#79C4ED"/>
<ellipse cx="204.932" cy="150.612" rx="2.60284" ry="1.57603" transform="rotate(69.0449 204.932 150.612)" fill="#79C4ED"/>
<path d="M205.705 152.99C204.726 152.632 200.455 153.115 198.736 156.237C197.017 159.36 196.359 155.294 196.244 152.871L196.624 152.508C198.662 153.027 201.48 152.315 202.863 149.671C204.247 147.027 205.87 150.674 205.705 152.99Z" fill="#79C4ED"/>
<ellipse cx="173.973" cy="174.929" rx="2.60284" ry="1.57603" transform="rotate(-128.358 173.973 174.929)" fill="#79C4ED"/>
<path d="M172.524 172.891C173.565 172.94 177.497 171.202 178.203 167.708C178.909 164.214 180.753 167.897 181.587 170.175L181.333 170.635C179.234 170.749 176.758 172.271 176.228 175.208C175.699 178.145 173.059 175.15 172.524 172.891Z" fill="#79C4ED"/>
<ellipse cx="200.074" cy="176.281" rx="2.60284" ry="1.57603" transform="rotate(153.486 200.074 176.281)" fill="#79C4ED"/>
<path d="M197.782 177.281C198.043 176.272 197.149 172.067 193.875 170.659C190.6 169.251 194.583 168.202 196.984 167.853L197.382 168.196C197.063 170.274 198.044 173.01 200.81 174.131C203.576 175.252 200.103 177.221 197.782 177.281Z" fill="#79C4ED"/>
<ellipse cx="187.034" cy="178.798" rx="2.60284" ry="1.57603" transform="rotate(-173.435 187.034 178.798)" fill="#79C4ED"/>
<path d="M184.567 178.385C185.338 177.682 186.883 173.671 184.908 170.704C182.933 167.737 186.843 169.032 189.045 170.05L189.191 170.555C187.789 172.122 187.119 174.95 188.824 177.399C190.53 179.848 186.545 179.601 184.567 178.385Z" fill="#79C4ED"/>
<ellipse cx="211.254" cy="166.58" rx="2.60284" ry="1.57603" transform="rotate(108.409 211.254 166.58)" fill="#79C4ED"/>
<path d="M210.344 168.909C209.814 168.011 206.205 165.675 202.896 166.999C199.586 168.324 201.656 164.763 203.105 162.817L203.629 162.777C204.875 164.47 207.505 165.707 210.252 164.541C212.999 163.374 211.94 167.223 210.344 168.909Z" fill="#79C4ED"/>
<ellipse cx="180.83" cy="175.049" rx="1.37089" ry="0.830082" transform="rotate(-140.365 180.83 175.049)" fill="#79C4ED"/>
<path d="M179.86 174.157C180.402 174.069 182.237 172.742 182.218 170.865C182.199 168.988 183.552 170.683 184.231 171.765L184.151 172.03C183.082 172.319 181.973 173.374 182.022 174.945C182.071 176.516 180.383 175.263 179.86 174.157Z" fill="#79C4ED"/>
<ellipse cx="173.703" cy="156.266" rx="1.37089" ry="0.830082" transform="rotate(-63.731 173.703 156.266)" fill="#79C4ED"/>
<path d="M174.345 155.116C174.557 155.623 176.271 157.102 178.094 156.649C179.916 156.197 178.579 157.906 177.683 158.817L177.407 158.8C176.879 157.826 175.596 156.992 174.079 157.402C172.561 157.813 173.391 155.881 174.345 155.116Z" fill="#79C4ED"/>
<ellipse cx="170.281" cy="163.95" rx="1.74495" ry="1.05657" transform="rotate(-89.0639 170.281 163.95)" fill="#79C4ED"/>
<path d="M170.394 162.277C170.914 162.745 173.692 163.512 175.541 161.999C177.391 160.486 176.784 163.18 176.25 164.716L175.923 164.847C174.785 164.015 172.854 163.754 171.332 165.052C169.811 166.351 169.713 163.677 170.394 162.277Z" fill="#79C4ED"/>
<circle cx="190.757" cy="159.533" r="8.33386" fill="#B1DDF4" fill-opacity="0.3"/>
<defs>
<clipPath id="clip0">
<rect width="380" height="480" transform="matrix(-1 0 0 1 575 30)" fill="white"/>
</clipPath>
</defs>
</svg>
