<svg width="300" height="233" viewBox="0 0 300 233" fill="none" xmlns="http://www.w3.org/2000/svg">
<g opacity="0.1">
<circle cx="76.5585" cy="15.1457" r="136.151" fill="#79C4ED"/>
<path d="M262.1 -78.7779C251.608 -82.6168 205.829 -77.4458 187.407 -43.9765C168.984 -10.5072 161.931 -54.0849 160.708 -80.0574L164.778 -83.9477C186.615 -78.3864 216.814 -86.0139 231.645 -114.351C246.476 -142.688 263.867 -103.597 262.1 -78.7779Z" fill="#79C4ED"/>
<path d="M-93.5201 134.502C-82.3596 135.027 -40.223 116.401 -32.6546 78.9536C-25.0862 41.5064 -5.32213 80.9796 3.61388 105.397L0.893718 110.327C-21.6071 111.551 -48.143 127.862 -53.8195 159.338C-59.496 190.814 -87.783 158.714 -93.5201 134.502Z" fill="#79C4ED"/>
<ellipse cx="201.754" cy="170.836" rx="27.8956" ry="16.8909" transform="rotate(153.486 201.754 170.836)" fill="#79C4ED"/>
<path d="M177.185 181.554C179.989 170.739 170.408 125.676 135.312 110.582C100.216 95.4889 142.905 84.2477 168.637 80.5139L172.903 84.1879C169.483 106.461 180 135.78 209.641 147.796C239.281 159.812 202.058 180.908 177.185 181.554Z" fill="#79C4ED"/>
<ellipse cx="62.0021" cy="197.817" rx="27.8956" ry="16.8909" transform="rotate(-173.435 62.0021 197.817)" fill="#79C4ED"/>
<path d="M35.5658 193.388C43.8184 185.856 60.385 142.868 39.2148 111.066C18.0447 79.2633 59.9505 93.1436 83.5496 104.059L85.1192 109.466C70.0972 126.263 62.9076 156.57 81.1858 182.816C99.464 209.062 56.76 206.423 35.5658 193.388Z" fill="#79C4ED"/>
<ellipse cx="271.075" cy="42.3405" rx="27.8956" ry="16.8909" transform="rotate(108.409 271.075 42.3405)" fill="#79C4ED"/>
<path d="M261.314 67.3045C255.637 57.6817 216.964 32.6442 181.494 46.8359C146.023 61.0277 168.209 22.8632 183.736 2.00694L189.35 1.58064C202.706 19.7304 230.892 32.9876 260.331 20.4858C289.77 7.98401 278.422 49.2371 261.314 67.3045Z" fill="#79C4ED"/>
<ellipse cx="-4.49739" cy="157.63" rx="14.6924" ry="8.89629" transform="rotate(-140.365 -4.49739 157.63)" fill="#79C4ED"/>
<path d="M-14.8935 148.077C-9.08642 147.125 10.5803 132.913 10.3765 112.792C10.1727 92.6708 24.6794 110.841 31.9582 122.441L31.097 125.279C19.6394 128.375 7.75596 139.685 8.28018 156.522C8.80441 173.36 -9.28524 159.922 -14.8935 148.077Z" fill="#79C4ED"/>
<circle cx="101.895" cy="-8.65508" r="89.317" fill="#B1DDF4" fill-opacity="0.3"/>
</g>
</svg>
